<?xml version="1.0" encoding="utf-8"?>
<!-- Generator: Adobe Illustrator 22.0.1, SVG Export Plug-In . SVG Version: 6.00 Build 0)  -->
<svg version="1.1" id="Calque_1" xmlns="http://www.w3.org/2000/svg" xmlns:xlink="http://www.w3.org/1999/xlink" x="0px" y="0px"
	 viewBox="0 0 486 186" style="enable-background:new 0 0 486 186;" xml:space="preserve">
<style type="text/css">
	.st0{fill:#FFFFFF;stroke:#FFFFFF;stroke-width:8;stroke-linecap:round;stroke-linejoin:round;}
	.st1{fill:#1D1D1B;}
	.st2{fill:#FFFFFF;}
	.st3{fill:#0098DB;}
	.st4{fill:#8CC7F1;}
	.st5{fill:#F9B233;}
	.st6{fill:#FCEA10;}
</style>
<title>logo</title>
<path class="st0" d="M440.3,47.1c-1.1-0.9-2.3-1.5-3.6-2c-1.3-0.4-2.7-0.7-4-0.9c-13.7-2.4-27.6-4.7-41.4-6.6
	c-4.6-0.7-8-0.2-10.3,1.3s-3.8,4.5-4.4,8.9L371,91.4c-1.5-1.6-4-2.8-7.8-3.3c-7.9-0.9-15.8-1.8-23.8-2.5l4.1-41.1
	c0.3-2.1,0.2-4.1-0.1-6.2v-0.2c-1.1-4-5-6.4-11.5-6.9c-2.2-0.2-8.8-0.7-11.6,3.5c-0.8,1.1-1.4,2.4-1.7,3.8c-0.2,1.3-0.4,2.6-0.5,3.8
	L315.2,80c0.1-5.3-1.4-10.6-4.4-15c6-9.4,4.6-21.8-3.4-29.6c-4.8-5.1-11.5-7.9-18.5-7.9c-8.9-0.3-18-0.4-26.8-0.4
	c-2.2,0-8.9,0-11.3,4.4c-0.7,1.2-1.2,2.5-1.4,3.8c-0.2,1.3-0.2,2.6-0.2,3.9l0.1,34.5c-0.7-4-2.4-7.8-4.8-11c2-3.5,3.1-7.5,3.1-11.6
	c0.1-6.8-2.8-13.3-7.9-17.8c-5.1-4.8-11.9-7.3-18.8-7c-8.9,0.2-18,0.5-26.8,0.9c-2.2,0.1-8.9,0.4-11.1,4.9c-0.7,1.2-1.1,2.5-1.2,3.9
	c-0.1,1.3-0.1,2.7,0,4l0.1,0.9c-0.1-1.6-0.5-3.1-1.1-4.6c-0.5-1.5-1.6-2.8-2.9-3.6c-1.2-0.7-2.6-1.2-4-1.5c-1.9-0.3-3.9-0.4-5.8-0.2
	c-2,0.1-4.1,0.5-6,1.2c-2,0.7-3.6,2.1-4.6,3.9c-1,1.8-1.3,4.1-1.1,7.5l2.3,26.9c0.4,3.6-0.4,7.3-2.2,10.5c-1.6,2.7-4,4.1-7.8,4.5
	c-1.9,0.2-3.8,0-5.6-0.7c-1.4-0.6-2.6-1.5-3.5-2.7c-2-2.7-3.2-6-3.6-9.3l-3.1-26.2c-0.2-2.7-1-5.3-2.5-7.6c-1.2-1.8-3.1-2.9-5.2-3.2
	c-4.3-0.5-8.6,0-12.7,1.5c-2,0.8-3.6,2.3-4.4,4.2c-0.6,1.3-0.9,2.6-1,4c0,1.3,0.1,2.7,0.3,4l3.6,29.3c0.1,0.7,0.2,1.3,0.3,2
	c-1.1-2.4-2.6-4.5-4.4-6.5c1.6-3.7,2.3-7.8,1.8-11.9c-0.7-6.8-4.2-12.9-9.8-16.8c-5.6-4.2-12.6-6-19.5-4.9
	c-8.8,1.1-17.8,2.4-26.5,3.8c-2.2,0.3-8.8,1.3-10.5,6.1c-0.5,1.3-0.8,2.6-0.8,4c0.1,1.3,0.2,2.6,0.4,3.9l8.8,53.7
	c0.3,2.1,0.9,4.1,1.8,6c1.5,2.9,4.3,4.4,8.4,4.5c1.3,0,2.6-0.1,3.9-0.3c8.5-1.3,17.2-2.5,25.8-3.6c6.9-0.8,13.2-4.3,17.4-9.8
	c4.4-5.5,6.5-12.5,5.8-19.6c2.1,5.1,5.2,9.8,9.1,13.7c3.4,3.5,7.6,6.2,12.2,7.9c3.8,1.4,7.9,2.2,12,2.2c1.2,0,2.4-0.1,3.5-0.2
	c5.3-0.4,10.4-2,15-4.7c4.2-2.5,7.9-5.8,10.8-9.9c4.3-6.3,6.8-13.6,7.3-21.1l0.9,17.2c0,2.1,0.4,4.2,1.1,6.2c1.2,3,3.8,4.8,7.8,5.4
	c1.3,0.2,2.6,0.2,3.9,0.1c8.6-0.4,17.4-0.7,26-0.8c6.9,0,13.6-2.9,18.4-7.8c4-4,6.7-9.2,7.5-14.8v11.2c-0.1,2.1,0.2,4.2,0.8,6.2
	c1,3.1,3.6,5,7.5,5.8c1.3,0.2,2.6,0.3,3.9,0.3c8.6,0,17.4,0.2,26,0.4c6.9,0.3,13.7-2.2,18.8-6.9c4.9-4.4,8-10.5,8.6-17.1L314,96.7
	c-0.2,2.1-0.1,4.2,0.3,6.2c0.7,2.8,3.2,6.3,10.9,6.9c11.8,1,23.6,2.1,35.3,3.5c0.8,0.1,1.7,0.1,2.5,0.2c1.5,0,2.9-0.2,4.3-0.7
	c1.2-0.4,2.3-1.2,3.1-2.3c1.5,2.7,4.8,4.5,9.6,5.2c12.9,1.8,25.9,3.9,38.6,6.2c1.5,0.3,3,0.4,4.6,0.5c0.6,0,1.1,0,1.7-0.1
	c2.9-0.4,6.7-2.4,8.1-10.1c0.4-2,1.5-8.3-2.6-11.4c-1.1-0.9-2.3-1.6-3.5-2c-1.3-0.4-2.5-0.7-3.8-0.9c-9-1.6-18.2-3.1-27.3-4.5
	l0.4-2.9c5.4,0.8,10.8,1.7,16.2,2.6c2.1,0.4,4.3,0.5,6.4,0.3c3-0.4,6.8-2.5,8.2-10.1c1-5.5,0-9.4-2.8-11.4c-1.1-0.8-2.3-1.5-3.6-1.9
	c-1.3-0.4-2.6-0.6-3.9-0.8c-5.6-0.9-11.2-1.8-16.8-2.7l0.4-2.9c9.4,1.4,18.8,3,28.1,4.6c2.1,0.5,4.3,0.6,6.5,0.4
	c3-0.3,6.9-2.4,8.3-10C444.1,53,443.2,49.2,440.3,47.1z M73.1,91.5l8.7-1.2c0,0,0.6,2.6-1,2.8l-7,0.8L73.1,91.5z M76.4,65.1l-7,0.8
	l-0.7-2.4l8.7-1.2C77.4,62.3,78,64.9,76.4,65.1z M216.5,78.9l-7.1,0.1l-0.4-2.5l8.8-0.3C217.8,76.2,218.1,78.9,216.5,78.9z
	 M215.3,50.6l-7.1,0.1l-0.4-2.5l8.8-0.3C216.5,47.9,216.8,50.6,215.3,50.6L215.3,50.6z M274.7,77.1l8.8,0.2c0,0,0.2,2.7-1.4,2.6
	l-7.1-0.3L274.7,77.1z M282.1,51.5l-7.1-0.3l-0.3-2.5l8.8,0.1C283.6,48.9,283.7,51.6,282.1,51.5z"/>
<path class="st1" d="M138.9,160.2c-2.2-13.6-4.4-27.2-6.7-40.9l-0.3-1.8l1.8-0.4c6.8-1.7,13.6-3.3,20.3-4.7c1.9-0.4,3.8-0.7,5.7-0.7
	c1.3,0,2.7,0.1,4,0.5c2.5,0.5,4.9,1.8,6.7,3.7c1.6,1.8,2.7,4,3.1,6.4c0.4,2.5,0.3,5-0.4,7.5c-0.7,2.7-1.9,5.2-3.4,7.5
	c-1.1,1.7-2.4,3.2-3.9,4.6c3.1,1.6,6.3,3.2,9.3,4.8l2.1,1.1l-1.4,1.9c-2.5,3.3-4.9,6.7-7.3,10l-1.1,1.5l-1.6-0.9
	c-3.5-2-7-4.1-10.6-6.1l0.8,7.4h-2.2c-4.3,0.1-8.6,0.2-12.9,0.4l-1.8,0.1L138.9,160.2z M151.8,134.4l0.3-0.2c0.7-0.5,1.3-1,1.9-1.7
	c0.4-0.4,0.7-0.9,1-1.4c0.1-0.2,0.2-0.4,0.3-0.7c0-0.1,0-0.3,0-0.4c0-0.2-0.1-0.4-0.1-0.5l0,0l-0.1-0.1l0,0c-0.2,0-0.3,0-0.5,0
	c-0.2,0-0.5,0-0.7,0c-0.8,0.1-1.5,0.4-2.3,0.8C151.6,131.6,151.7,133,151.8,134.4L151.8,134.4z"/>
<path class="st2" d="M159.7,113.7c1.2,0,2.4,0.1,3.6,0.4c2.2,0.5,4.1,1.5,5.7,3.1c1.4,1.5,2.3,3.4,2.6,5.4c0.4,2.2,0.2,4.5-0.3,6.6
	c-0.7,2.5-1.7,4.8-3.2,6.9c-1.6,2.4-3.5,4.4-5.8,6.1c4,2,8,4,12,6.1c-2.5,3.3-4.9,6.7-7.3,10c-4.6-2.7-9.3-5.3-14-7.9
	c0.3,3,0.6,6,1,9c-4.3,0.1-8.7,0.2-13,0.4c-2.2-13.6-4.4-27.3-6.7-40.9c7-1.8,13.7-3.3,20.2-4.7
	C156.2,113.9,157.9,113.6,159.7,113.7 M149.9,137.4c1.2-0.4,2.3-0.9,3.3-1.6c0.8-0.6,1.6-1.2,2.2-2c0.5-0.6,1-1.2,1.3-1.9
	c0.2-0.4,0.4-0.9,0.5-1.4c0,0,0-0.2,0-0.6c0-0.4-0.1-0.8-0.3-1.2c-0.2-0.5-0.6-0.9-1.1-1.1c-0.4-0.2-0.9-0.3-1.4-0.3
	c-0.3,0-0.7,0-1,0.1c-1.4,0.3-2.8,0.9-4,1.7c0.2,2.8,0.3,5.6,0.5,8.5 M159.7,109.7L159.7,109.7c-2.1,0-4.1,0.3-6.1,0.7
	c-6.7,1.4-13.5,3-20.4,4.7l-3.6,0.9l0.6,3.6c2.2,13.5,4.5,27.3,6.7,40.9l0.6,3.5l3.5-0.1c4.3-0.2,8.6-0.3,12.9-0.4l4.4-0.1l-0.5-4.3
	l-0.1-1.3c2.4,1.4,4.8,2.8,7.2,4.1l3.1,1.8l2.1-3c2.4-3.3,4.8-6.7,7.3-10l2.8-3.8l-4.2-2.2c-2.3-1.2-4.6-2.4-6.9-3.6
	c2.8-3.2,4.8-6.9,5.9-11c0.7-2.7,0.9-5.5,0.4-8.3c-0.4-2.8-1.7-5.4-3.6-7.4c-2.1-2.2-4.7-3.7-7.7-4.3
	C162.8,109.9,161.3,109.7,159.7,109.7L159.7,109.7z"/>
<path class="st1" d="M189.5,157.1c-2,0-4-0.3-5.9-0.9c-2.2-0.7-4.3-1.8-6.1-3.3c-1.8-1.4-3.3-3.2-4.4-5.2c-1.1-2.1-1.8-4.3-2-6.6
	c-0.3-2.7-0.1-5.4,0.7-8c0.7-2.3,1.9-4.5,3.5-6.3c1.6-1.8,3.5-3.2,5.6-4.2c2.2-1,4.6-1.7,7.1-1.8c0.6,0,1.1-0.1,1.7-0.1
	c7-0.1,13.4,3.8,16.5,10.1l0.7,1.4l-1.3,1c-3.7,3-7.4,6.1-11.1,9.2c0.3-0.1,0.6-0.2,0.8-0.4c0.9-0.6,1.8-1.2,2.6-2l1.7-1.6l1.4,1.9
	c2,2.8,3.9,5.6,5.8,8.4l1.1,1.5l-1.5,1.2c-2.1,1.7-4.5,3-7,4c-2.7,0.9-5.5,1.5-8.3,1.7C190.6,157.1,190,157.1,189.5,157.1z
	 M188.6,133.9c-0.3,0-0.5,0.1-0.8,0.3c-0.3,0.2-0.6,0.5-0.9,0.8c-0.2,0.2-0.3,0.4-0.4,0.7L188.6,133.9z"/>
<path class="st2" d="M189.7,122.7c6.2-0.1,12,3.4,14.7,9c-5.2,4.3-10.4,8.6-15.5,12.9c0.5,0.2,1.1,0.3,1.6,0.3h0.8c0.4,0,0.7,0,1,0
	c1.4-0.1,2.9-0.5,4.1-1.1c1.1-0.6,2.1-1.4,3-2.3c1.9,2.8,3.9,5.5,5.8,8.3c-1.9,1.6-4.1,2.9-6.5,3.7c-2.5,0.9-5.1,1.4-7.7,1.6
	c-0.5,0-1,0.1-1.5,0.1c-3.9,0-7.7-1.3-10.7-3.7c-1.6-1.3-2.9-2.8-3.9-4.6c-1-1.8-1.6-3.8-1.8-5.9c-0.3-2.4-0.1-4.9,0.6-7.2
	c0.6-2.1,1.7-4,3.1-5.6c1.4-1.6,3.1-2.9,5-3.7c2-0.9,4.2-1.5,6.4-1.6c0.5,0,1,0,1.5,0 M184.9,139.8c2.5-2.2,5.1-4.4,7.7-6.6
	c-0.5-0.6-1.1-1-1.8-1.2c-0.5-0.1-1-0.2-1.5-0.2h-0.6c-0.7,0-1.4,0.2-2,0.6c-0.6,0.3-1.1,0.8-1.5,1.3c-0.8,1.1-1.2,2.4-1.1,3.8
	c0,0.5,0.1,0.9,0.2,1.3c0.1,0.3,0.3,0.5,0.4,0.8 M189.7,118.7c-0.6,0-1.2,0-1.8,0.1c-2.7,0.2-5.3,0.9-7.8,2
	c-2.4,1.1-4.6,2.7-6.3,4.7c-1.8,2-3.1,4.4-3.9,7c-0.9,2.8-1.1,5.8-0.8,8.8c0.2,2.6,1,5.1,2.3,7.4c1.2,2.2,2.9,4.2,4.9,5.8
	c2,1.6,4.3,2.8,6.8,3.6c2.1,0.7,4.3,1,6.5,1c0.6,0,1.2,0,1.8-0.1c3-0.2,6-0.8,8.9-1.8c2.7-1,5.3-2.5,7.6-4.4l2.9-2.3l-2.1-3.1
	c-1.9-2.8-3.9-5.6-5.8-8.4l-0.4-0.6c1.5-1.3,3.1-2.6,4.7-3.8l2.5-2l-1.5-2.9C204.5,122.9,197.4,118.6,189.7,118.7L189.7,118.7z"/>
<path class="st1" d="M216.5,155.2c-1.5,0-2.9-0.2-4.3-0.7c-1.5-0.5-2.9-1.4-4.1-2.4c-1.2-1.1-2.2-2.5-2.9-3.9
	c-0.8-1.6-1.2-3.4-1.3-5.2c-0.1-1.7,0.2-3.4,0.8-4.9c0.6-1.5,1.5-2.8,2.6-3.9c0.3-0.3,0.5-0.5,0.8-0.7l-1.7,0.6l0.7-3.4
	c0.6-2.8,1.2-5.7,1.8-8.5l0.2-1.1l1.1-0.4c1.9-0.6,3.9-1.1,5.9-1.3c2-0.3,4.1-0.4,6.1-0.5h0.7c1.7,0,3.4,0.2,5.1,0.5
	c1.9,0.4,3.7,1.1,5.3,2.2c1.6,1.1,2.9,2.5,3.8,4.2c1,2,1.5,4.1,1.4,6.3c-0.1,6.7-0.3,13.4-0.4,20.1v1.8l-1.8,0.2
	c-3.5,0.3-7.1,0.7-10.7,1.1l-2.2,0.2v-1.6c-0.3,0.2-0.7,0.4-1.1,0.5c-1.7,0.7-3.6,1-5.4,1.1L216.5,155.2z M216.3,143
	c0,0,0,0.1,0.4,0.3c0.3,0.1,0.7,0.2,1.1,0.2l0,0c0.4,0,0.8,0,1.2-0.1c0.7-0.1,1.4-0.4,2-0.8c0.1-0.1,0.3-0.3,0.2-0.4
	s-0.1-0.1-0.4-0.4c-0.3-0.1-0.6-0.2-0.9-0.2c-0.4,0-0.8,0-1.2,0.1c-0.8,0.1-1.5,0.4-2.1,0.9C216.4,142.7,216.2,142.9,216.3,143z"/>
<path class="st2" d="M222.9,120.5c1.6,0,3.1,0.2,4.7,0.5c1.6,0.3,3.2,1,4.6,1.9c1.3,0.9,2.4,2.1,3.2,3.5c0.8,1.7,1.2,3.5,1.1,5.3
	l-0.4,20c-3.6,0.3-7.1,0.7-10.7,1.1l-0.1-3.6h-0.1c-0.9,1.3-2.1,2.3-3.6,2.9c-1.5,0.6-3.1,0.9-4.7,1h-0.4c-1.2,0-2.5-0.2-3.6-0.6
	c-1.3-0.4-2.5-1.1-3.4-2.1c-1-0.9-1.9-2.1-2.5-3.3c-0.7-1.4-1-2.9-1.1-4.4c-0.1-1.4,0.1-2.7,0.7-4c0.5-1.2,1.3-2.4,2.2-3.3
	c1-1,2.2-1.7,3.4-2.3c1.4-0.6,2.9-0.9,4.4-0.9h0.6c1.2,0,2.5,0.2,3.7,0.6c1.1,0.4,2.1,0.9,3,1.5c0-0.5,0-1.1,0-1.6
	c0-1.6-0.6-2.7-1.7-3.2c-1.2-0.5-2.5-0.7-3.8-0.7h-0.6c-1.5,0-3,0.3-4.5,0.6c-1.4,0.4-2.8,0.8-4.2,1.3c0.6-2.8,1.2-5.7,1.8-8.5
	c1.8-0.6,3.6-1,5.5-1.3c2-0.3,3.9-0.4,5.9-0.5L222.9,120.5 M217.8,145.4c0.5,0,1.1-0.1,1.6-0.1c1.2-0.1,2.2-0.6,3.1-1.4
	c0.6-0.5,0.9-1.4,0.7-2.2c-0.2-0.8-0.7-1.4-1.4-1.7c-0.6-0.3-1.2-0.4-1.9-0.4c-0.5,0-1.1,0.1-1.6,0.2c-1.1,0.2-2.1,0.6-3,1.4
	c-0.7,0.5-1.1,1.4-0.9,2.2c0.2,0.8,0.8,1.5,1.6,1.8C216.5,145.3,217.2,145.4,217.8,145.4 M222.9,116.6h-0.8
	c-2.1,0.1-4.2,0.2-6.3,0.5c-2.1,0.3-4.2,0.8-6.2,1.4l-2.2,0.7l-0.5,2.3c-0.6,2.8-1.2,5.7-1.8,8.5l-0.9,4.6c-0.6,0.8-1,1.7-1.4,2.6
	c-0.8,1.8-1.1,3.8-1,5.8c0.1,2.1,0.6,4.1,1.5,6c0.8,1.7,2,3.3,3.4,4.6c1.4,1.3,3,2.2,4.8,2.9c1.6,0.6,3.3,0.9,5,0.9h0.6
	c1.5-0.1,3-0.3,4.5-0.7v0.9l4.3-0.5c3.5-0.4,7.1-0.8,10.6-1.1l3.6-0.3l0.1-3.6l0.4-20v-0.1c0.1-2.5-0.5-5-1.6-7.3
	c-1.1-2-2.6-3.6-4.4-4.9c-1.8-1.2-3.9-2.1-6-2.5C226.7,116.8,224.8,116.6,222.9,116.6L222.9,116.6z"/>
<path class="st1" d="M256.7,155.1c-2.5,0-5-0.5-7.4-1.4c-2.2-0.9-4.3-2.2-6-3.8c-1.7-1.6-3-3.5-4-5.7c-1-2.2-1.5-4.6-1.5-7
	c-0.1-2.7,0.5-5.3,1.5-7.8c1-2.3,2.5-4.3,4.3-5.9c1.9-1.6,4.1-2.9,6.6-3.6c2.4-0.8,4.9-1.2,7.5-1.1h0.5c2.6,0,5.2,0.5,7.6,1.6
	c1.8,0.8,3.5,1.7,5.1,2.8l1.8,1.3l-1.4,1.7c-2.5,2.9-5,5.9-7.5,8.9l-1.3,1.5l-1.5-1.2c-0.4-0.3-0.8-0.5-1.2-0.7
	c-0.5-0.2-1.1-0.4-1.6-0.5c-0.4-0.1-0.9-0.1-1.3-0.1h-0.3c-0.3,0-0.5,0-0.7,0.1c-0.5,0.2-0.9,0.5-1.3,0.9c-0.3,0.3-0.6,0.6-0.7,1
	c-0.1,0.3-0.2,0.6-0.2,0.9c0,0.4,0.1,0.8,0.3,1.1c0.3,0.8,1,1.4,1.8,1.6c0.3,0.1,0.6,0.1,0.9,0.1c0.7,0,1.4-0.2,2-0.5l4.3-2l1,1.3
	c2.4,3.2,4.8,6.5,7.1,9.8l1.1,1.5l-1.5,1.2c-1,0.8-2.1,1.5-3.3,2.1c-1.1,0.5-2.3,0.9-3.5,1.3c-1.2,0.3-2.4,0.5-3.6,0.6
	c-1,0.1-2,0.1-2.9,0.1L256.7,155.1z"/>
<path class="st2" d="M257.7,120.6h0.5c2.3,0,4.7,0.5,6.8,1.4c1.7,0.7,3.3,1.6,4.8,2.6c-2.5,3-5.1,6-7.5,9c-0.5-0.4-1.1-0.8-1.8-1
	c-0.6-0.3-1.3-0.5-2-0.6c-0.6-0.1-1.1-0.1-1.7-0.1h-0.3c-0.5,0-1.1,0.1-1.6,0.4c-0.7,0.3-1.3,0.7-1.8,1.2c-0.5,0.4-0.9,1-1.2,1.6
	c-0.3,0.6-0.4,1.2-0.4,1.8c0.2,2.1,1.6,4,3.6,4.6c0.4,0.1,0.9,0.2,1.4,0.2c1,0,2-0.2,2.9-0.7l2.8-1.3c2.4,3.2,4.7,6.5,7,9.8
	c-0.9,0.7-1.9,1.4-2.9,1.8c-1,0.5-2.1,0.9-3.1,1.2c-1.1,0.3-2.2,0.5-3.3,0.6c-0.9,0.1-1.8,0.1-2.7,0.1h-0.5c-2.3,0-4.5-0.5-6.7-1.3
	c-2-0.8-3.8-1.9-5.3-3.4c-1.5-1.4-2.7-3.1-3.6-5c-0.9-2-1.3-4.1-1.3-6.3c-0.1-2.4,0.4-4.8,1.3-7c0.9-2,2.2-3.8,3.8-5.3
	c1.7-1.5,3.7-2.6,5.9-3.3C253.1,120.9,255.4,120.6,257.7,120.6 M257.7,116.6c-2.8,0-5.5,0.4-8.1,1.2c-2.7,0.8-5.1,2.2-7.2,4
	c-2.1,1.8-3.8,4.1-4.9,6.7c-1.2,2.7-1.7,5.6-1.7,8.6c0,2.7,0.6,5.4,1.7,7.9c1.1,2.4,2.6,4.5,4.5,6.3c1.9,1.8,4.1,3.2,6.6,4.2
	c2.6,1,5.3,1.6,8.1,1.6h0.5c1,0,2-0.1,3.1-0.1c1.3-0.1,2.6-0.4,3.9-0.7c1.3-0.4,2.6-0.8,3.8-1.4c1.3-0.6,2.6-1.4,3.8-2.4l2.9-2.4
	l-2.2-3.1c-2.3-3.3-4.7-6.6-7.1-9.8l-0.5-0.6l0.4-0.5c2.5-3,5-6,7.5-8.9l2.9-3.4l-3.7-2.5c-1.7-1.2-3.5-2.2-5.4-3
	c-2.7-1.1-5.5-1.7-8.4-1.7L257.7,116.6z M256.6,135.9h0.2c0.3,0,0.7,0,1,0.1c0.4,0.1,0.9,0.2,1.3,0.4l0.4,0.2l-1.7,0.8
	c-0.4,0.2-0.8,0.3-1.2,0.3c-0.1,0-0.2,0-0.4,0c-0.1,0-0.2-0.1-0.5-0.5V137l0,0c0-0.1-0.1-0.1-0.1-0.2c0.1-0.1,0.2-0.3,0.3-0.4
	C256.1,136.2,256.4,136.1,256.6,135.9L256.6,135.9z"/>
<path class="st1" d="M285.6,156.4l-1.8-0.1c-3.9-0.2-6.9-1.3-9.1-3.2s-3.4-5.1-3.2-9.2l0.4-10.5h-3.1l1-13.2l2.5,0.1l0.1-2.8
	l1.2-0.5c4.1-1.6,8.3-3.1,12.4-4.6l2.9-1l-0.5,9.4l4.7-0.4l-1.5,12.1l-0.2,1.9l-3.6-0.2l-0.4,7.3c0,0.2,0,0.4,0,0.6
	c0.2,0,0.3,0,0.5,0.1c0.3,0,0.5,0,0.6,0h0.2c0.2,0,0.3,0,0.5-0.1l3.1-0.7l-0.8,3.1c-0.8,3.4-1.7,6.9-2.5,10.4l-0.3,1.4l-1.5,0.1
	c-0.5,0-1,0.1-1.4,0.1L285.6,156.4z"/>
<path class="st2" d="M286.8,114.2c-0.2,2.9-0.3,5.8-0.5,8.7l4.5-0.4c-0.4,3.2-0.8,6.5-1.2,9.7l-3.7-0.2l-0.5,9.3
	c-0.1,0.7,0,1.5,0.3,2.1c0.6,0.5,1.3,0.7,2,0.6c0.3,0,0.5,0,0.8,0h0.4c0.3,0,0.6,0,0.8-0.1c-0.8,3.5-1.7,6.9-2.5,10.4
	c-0.5,0-0.9,0-1.3,0h-0.4l-1.7-0.1c-3.4-0.2-6-1.1-7.9-2.7s-2.7-4.2-2.5-7.6c0.2-4.2,0.3-8.4,0.5-12.6l-3-0.1l0.7-9.1l2.6,0.1
	c0-1.2,0.1-2.3,0.1-3.5C278.5,117.2,282.6,115.7,286.8,114.2 M291.1,108.4l-5.7,2.1c-4.1,1.5-8.3,3.1-12.4,4.6l-2.5,0.9l-0.1,2.1
	l-2.5-0.1l-0.3,3.9l-0.7,9.2l-0.3,4.2l3.1,0.1l-0.1,2.3l-0.3,6.2c-0.2,4.7,1.1,8.3,3.9,10.8c2.5,2.2,6,3.4,10.3,3.7
	c0.6,0,1.2,0.1,1.8,0.1h0.5c0.5,0,1,0,1.5-0.1l3-0.2l0.7-2.9c0.8-3.4,1.7-6.9,2.5-10.4l1.5-6.2l-5.7,1.2l0.2-3.7l3.5,0.2l0.5-3.7
	c0.4-3.2,0.8-6.5,1.2-9.7l0.6-4.9l-4.9,0.4l0.2-4.1L291.1,108.4L291.1,108.4z"/>
<path class="st1" d="M308.4,157.8c-2.1,0-4.3-0.3-6.3-0.9c-2.3-0.7-4.4-1.8-6.3-3.3c-1.9-1.5-3.4-3.4-4.5-5.5
	c-1.2-2.3-1.9-4.8-2-7.4c-0.2-2.6,0.1-5.1,0.9-7.6c0.8-2.3,2.1-4.3,3.7-6.1c1.7-1.8,3.7-3.2,6-4.1c2.4-1,5-1.6,7.6-1.7h1.1
	c2.2,0,4.4,0.3,6.6,0.9c2.4,0.7,4.5,1.9,6.5,3.4c1.9,1.6,3.4,3.5,4.5,5.7c1.1,2.3,1.7,4.9,1.8,7.5c0.1,2.6-0.3,5.2-1.2,7.6
	c-0.9,2.2-2.2,4.2-3.9,5.9c-1.7,1.7-3.7,3-5.9,3.9c-2.3,0.9-4.8,1.5-7.3,1.6L308.4,157.8z M309.3,136.4c-0.6,0-1.2,0.1-1.8,0.3
	c-1.1,0.2-2,0.9-2.7,1.8c-0.4,0.6-0.5,1.4-0.2,2.1c0.2,0.8,0.8,1.4,1.6,1.7c0.4,0.2,0.9,0.3,1.3,0.2c0.6,0,1.3-0.1,1.9-0.3
	c1-0.3,2-0.9,2.6-1.7c0.4-0.6,0.5-1.5,0.2-2.2c-0.3-0.8-0.8-1.4-1.6-1.7C310.2,136.4,309.7,136.4,309.3,136.4z"/>
<path class="st2" d="M308.6,123.3c2,0,4.1,0.3,6,0.9c2.1,0.6,4.1,1.6,5.8,3c1.7,1.4,3,3.1,3.9,5c1,2.1,1.5,4.4,1.6,6.7
	c0.1,2.3-0.2,4.6-1.1,6.7c-0.8,2-1.9,3.7-3.4,5.2c-1.5,1.5-3.3,2.7-5.3,3.5c-2.1,0.9-4.4,1.3-6.6,1.4h-1c-1.9,0-3.9-0.3-5.8-0.8
	c-2-0.6-4-1.6-5.6-2.9c-1.7-1.3-3-3-4-4.8c-1.1-2-1.7-4.3-1.8-6.6c-0.2-2.3,0-4.6,0.8-6.8c0.7-2,1.8-3.8,3.3-5.4
	c1.5-1.6,3.3-2.8,5.3-3.6c2.2-0.9,4.5-1.4,6.9-1.5C307.9,123.3,308.3,123.3,308.6,123.3 M307.4,144.5c0.8,0,1.7-0.2,2.5-0.4
	c1.5-0.4,2.8-1.3,3.7-2.6c0.8-1.1,0.9-2.6,0.4-3.9c-0.4-1.3-1.4-2.4-2.7-2.9c-0.7-0.3-1.4-0.4-2.1-0.4c-0.8,0-1.7,0.2-2.5,0.4
	c-1.5,0.4-2.9,1.3-3.8,2.6c-0.7,1.2-0.9,2.6-0.4,3.9c0.4,1.3,1.4,2.4,2.7,2.9C306,144.4,306.7,144.5,307.4,144.5 M308.6,119.3
	c-0.4,0-0.8,0-1.3,0c-2.8,0.1-5.7,0.7-8.3,1.8c-2.5,1.1-4.8,2.6-6.6,4.6c-1.8,2-3.2,4.3-4.1,6.8c-0.9,2.7-1.3,5.6-1,8.4
	c0.2,2.8,0.9,5.6,2.3,8.1c1.2,2.3,2.9,4.4,5,6.1c2.1,1.7,4.5,2.9,7,3.6c2.2,0.7,4.6,1,6.9,1h1.2c2.7-0.1,5.5-0.7,8-1.7
	c2.4-1,4.7-2.5,6.5-4.3c1.9-1.9,3.3-4.1,4.3-6.6c1.1-2.7,1.5-5.5,1.4-8.4c-0.1-2.9-0.8-5.7-2-8.3c-1.2-2.5-2.9-4.6-5-6.3
	c-2.1-1.7-4.5-3-7.1-3.8C313.4,119.7,311,119.3,308.6,119.3L308.6,119.3z M306.5,139.9c-0.1-0.3-0.1-0.3,0-0.4
	c0.4-0.5,1-0.8,1.6-0.9c0.4-0.1,0.8-0.2,1.2-0.2c0.2,0,0.4,0,0.5,0.1c0.2,0.1,0.4,0.3,0.5,0.5c0.1,0.3,0,0.3,0,0.4
	c-0.4,0.5-1,0.8-1.6,0.9c-0.4,0.1-0.8,0.2-1.3,0.2c-0.2,0-0.4,0-0.5-0.1C306.8,140.4,306.6,140.3,306.5,139.9L306.5,139.9z"/>
<path class="st1" d="M337.8,160c-3.7-0.2-7.5-0.3-11.2-0.4l-2.2-0.1l0.2-2.1c1.1-10.3,2.1-20.6,3.2-30.9l0.2-1.9l1.9,0.1
	c3.7,0.1,7.5,0.2,11.4,0.4l2.2,0.1l-0.2,1.8c1.4-0.7,3-1,4.5-0.9c0.7,0,1.4,0.1,2.1,0.1c1,0.1,2,0.3,3,0.6l2.2,0.6l-0.9,2.1
	c-1.5,3.6-2.9,7.2-4.4,10.8L349,142l-1.7-0.5l-0.5-0.1l-1.1-0.1c-0.2,0-0.4,0-0.6,0c-0.8,0-1.5,0.2-2.1,0.6
	c-0.8,0.7-1.3,1.8-1.4,2.9l-2,15.3L337.8,160z"/>
<path class="st2" d="M329.8,126.8c3.8,0.1,7.5,0.2,11.3,0.4c-0.3,2-0.5,3.9-0.7,5.8h0.1c1-3.1,4-5.1,7.2-4.9c0.6,0,1.2,0,1.9,0.1
	c0.9,0.1,1.9,0.3,2.8,0.6c-1.5,3.6-3,7.2-4.4,10.8c-0.3-0.1-0.5-0.1-0.8-0.2l-1.1-0.1c-0.3,0-0.6-0.1-0.9-0.1
	c-2.9-0.1-5.4,2.2-5.5,5.2c0,0.1,0,0.1,0,0.2l-1.8,13.5c-3.8-0.2-7.5-0.3-11.2-0.4C327.6,147.3,328.7,137,329.8,126.8 M326.1,122.6
	l-0.4,3.7c-1,10.3-2.1,20.6-3.2,30.9l-0.4,4.3l4.3,0.1c3.7,0.1,7.5,0.2,11.2,0.4l3.7,0.2l0.5-3.6l0.8-5.9l1-7.6
	c0-0.5,0.2-1.1,0.5-1.5c0.3-0.2,0.6-0.3,1-0.3h0.4l1,0.1h0.1c0.1,0,0.2,0,0.3,0.1l3.5,1l1.3-3.3c1.5-3.6,2.9-7.2,4.4-10.8l1.8-4.2
	l-4.4-1.2c-1.1-0.3-2.2-0.5-3.3-0.6c-0.8-0.1-1.6-0.2-2.4-0.2c-0.7,0-1.4,0-2.1,0.2l0.1-0.9l-4.4-0.2c-3.8-0.2-7.6-0.3-11.4-0.4
	L326.1,122.6L326.1,122.6z"/>
<path class="st3" d="M440.3,47.1c-1.1-0.9-2.3-1.5-3.6-2c-1.3-0.4-2.7-0.7-4-0.9c-13.7-2.4-27.6-4.7-41.4-6.6
	c-4.6-0.7-8-0.2-10.3,1.3s-3.8,4.5-4.4,8.9l-7.1,54c-0.4,2.1-0.4,4.1,0,6.2c0.8,4.1,4.3,6.7,10.5,7.5c12.9,1.8,25.9,3.9,38.6,6.1
	c1.5,0.3,3,0.5,4.6,0.5c0.6,0,1.1,0,1.7-0.1c2.9-0.4,6.7-2.4,8.1-10c0.4-2,1.5-8.3-2.6-11.4c-1.1-0.9-2.3-1.6-3.5-2
	c-1.3-0.4-2.5-0.7-3.8-0.9c-9-1.6-18.2-3.1-27.3-4.5l0.4-2.9c5.4,0.8,10.8,1.7,16.2,2.6c2.1,0.4,4.3,0.5,6.4,0.3
	c3-0.4,6.8-2.5,8.2-10.1c1-5.5,0-9.4-2.8-11.4c-1.1-0.8-2.3-1.5-3.6-1.9c-1.3-0.4-2.6-0.6-3.9-0.8c-5.6-0.9-11.2-1.8-16.8-2.7
	l0.4-2.9c9.4,1.4,18.8,3,28.1,4.6c2.1,0.5,4.3,0.6,6.5,0.4c3-0.3,6.9-2.4,8.3-10C444.1,53.1,443.2,49.2,440.3,47.1z"/>
<path class="st4" d="M436.7,47.7c-1-0.8-2.1-1.4-3.3-1.7c-1.2-0.3-2.4-0.6-3.6-0.8c-12.2-2.2-24.6-4.2-36.9-5.9
	c-4.1-0.6-7.1-0.2-9.1,1.2s-3.4,4-3.9,8l-6.3,47.2c-0.3,1.8-0.3,3.7,0,5.5c0.7,3.7,3.9,6,9.4,6.7c11.5,1.6,23.1,3.4,34.5,5.5
	c1.6,0.3,11.9,2.2,12.8-4.6c0.5-3.8-0.8-7.1-3.9-8.4c-3.5-1.5-25.4-4.4-32.4-5.3l1.4-9.6c5.8,0.7,11.7,1.5,16.4,2.3
	c2.5,0.4,11.4,2,13-4.7c2.4-9.9-2.5-11.4-6.1-12.2c-7.2-1.5-15-2.6-20-3.4l1.3-9c8.3,1.3,17.8,2.7,26,4.1c2.5,0.4,12,2.3,13.2-4.6
	C440,53,439.2,49.5,436.7,47.7z"/>
<ellipse transform="matrix(0.7936 -0.6085 0.6085 0.7936 52.9815 243.8621)" class="st2" cx="385.9" cy="43.8" rx="2.8" ry="1.9"/>
<ellipse transform="matrix(0.1554 -0.9879 0.9879 0.1554 281.6595 477.1599)" class="st2" cx="419.9" cy="73.9" rx="1" ry="2.3"/>
<ellipse transform="matrix(0.1554 -0.9879 0.9879 0.1554 257.8448 504.4566)" class="st2" cx="423.9" cy="101.4" rx="1" ry="2.3"/>
<path class="st3" d="M181.9,42.4c0-2.1-0.4-4.2-1.2-6.2c-0.5-1.5-1.5-2.7-2.9-3.6c-1.2-0.7-2.6-1.2-4-1.5c-3.9-0.6-7.9-0.3-11.7,0.9
	c-2,0.7-3.6,2.1-4.7,3.9c-1,1.8-1.3,4.1-1.1,7.5l2.3,26.9c0.4,3.6-0.4,7.3-2.2,10.5c-1.6,2.7-4,4.1-7.8,4.5c-1.9,0.2-3.8,0-5.6-0.7
	c-1.4-0.6-2.6-1.5-3.5-2.7c-2-2.7-3.2-6-3.6-9.3l-3.1-26.2c-0.2-2.7-1-5.3-2.5-7.6c-1.2-1.8-3.1-2.9-5.2-3.2
	c-4.3-0.5-8.6,0-12.7,1.5c-2,0.8-3.6,2.3-4.4,4.2c-0.6,1.3-0.9,2.6-1,4c0,1.3,0.1,2.7,0.3,4l3.6,29.3c1.1,9.2,5.3,17.8,11.9,24.3
	c3.4,3.5,7.6,6.2,12.2,7.9c3.8,1.4,7.9,2.2,12,2.2c1.2,0,2.4,0,3.5-0.2c5.3-0.4,10.4-2,15-4.7c4.3-2.5,7.9-5.8,10.8-9.9
	c5.3-7.6,7.9-16.9,7.3-26.2L181.9,42.4z"/>
<path class="st4" d="M180.3,45.8c-1-11.2-5-13.6-10.4-13.5c-12.1,0.3-11.1,10-10.9,12.7l2.2,26.3c0,0,1.6,15.2-11.9,16.3
	c-13.5,1.1-15.5-14.6-15.5-14.6l-2.9-20.8c-1-10.9-1.8-16.6-11.9-15.5s-10.2,6.1-9.7,10.7c0.5,4.9,3.2,34.4,8.7,43.7
	c6.2,10.2,16.9,15.2,34.5,13.2c10.3-1.2,20.6-7.4,26-19.9S180.3,45.8,180.3,45.8z"/>
<ellipse transform="matrix(0.6465 -0.7629 0.7629 0.6465 -7.5413 151.9992)" class="st2" cx="160.3" cy="84.1" rx="3.3" ry="1.3"/>
<ellipse transform="matrix(0.6465 -0.7629 0.7629 0.6465 8.4371 102.5606)" class="st2" cx="114.9" cy="42.2" rx="2.8" ry="1.9"/>
<path class="st3" d="M363.2,88.2c-7.9-0.9-15.8-1.8-23.8-2.5l4.1-41.1c0.3-2.1,0.2-4.1-0.1-6.2v-0.2c-1.1-4-5-6.4-11.5-6.9
	c-2.2-0.2-8.8-0.7-11.6,3.5c-0.8,1.1-1.4,2.4-1.7,3.8c-0.2,1.3-0.4,2.5-0.5,3.8l-4,54.3c-0.2,2.1-0.1,4.2,0.3,6.2
	c0.7,2.8,3.2,6.3,10.9,6.9c11.8,1,23.6,2.1,35.3,3.5c0.8,0.1,1.7,0.1,2.5,0.2c1.5,0,2.9-0.2,4.3-0.7c1.8-0.6,3.3-2,4-3.8
	c0.7-1.6,1.1-3.3,1.3-5.1C372.9,101.8,376.9,89.8,363.2,88.2z"/>
<path class="st4" d="M337.4,87c0,0,3.9-38.8,3.9-45.1s-3-8-9-8.6c-11.5-1.1-11.5,5.3-11.6,6.8l-4.1,48.2c-0.2,1.8-0.1,3.7,0.3,5.5
	c0.7,2.5,1.6,6.8,8.6,7.4c10.8,0.9,26.7,4.1,37.5,4.1c7.8,0,10.6-6,8.4-11c-1.6-3.7-6-4-6-4L337.4,87z"/>
<ellipse transform="matrix(0.7936 -0.6085 0.6085 0.7936 44.3138 205.4115)" class="st2" cx="324.9" cy="37.4" rx="2.8" ry="1.9"/>
<ellipse transform="matrix(5.989229e-02 -0.9982 0.9982 5.989229e-02 246.3241 451.6002)" class="st2" cx="362.9" cy="95" rx="1.2" ry="3.6"/>
<path class="st3" d="M315.2,81c0.3-5.6-1.2-11.2-4.4-15.9c6-9.4,4.6-21.8-3.4-29.6c-4.8-5.1-11.5-7.9-18.5-7.9
	c-8.9-0.3-18-0.4-26.8-0.4c-2.2,0-8.9,0-11.3,4.4c-0.7,1.2-1.2,2.5-1.4,3.8c-0.2,1.3-0.2,2.6-0.2,3.9l0.2,54.4
	c-0.1,2.1,0.2,4.2,0.8,6.2c1,3.1,3.6,5,7.5,5.8c1.3,0.2,2.6,0.3,3.9,0.3c8.6,0,17.4,0.2,26,0.4c6.9,0.3,13.7-2.2,18.8-6.9
	C311.7,94.7,314.9,88,315.2,81z M282,80l-7.1-0.3l-0.3-2.5l8.8,0.1C283.4,77.3,283.6,80,282,80L282,80z M282.1,51.6l-7.1-0.3
	l-0.3-2.5l8.8,0.2C283.6,48.9,283.7,51.6,282.1,51.6L282.1,51.6z"/>
<path class="st4" d="M310.8,77c0.2-5.1-1.2-10.1-4-14.3c5.4-8.5,4.2-19.6-3-26.7c-4.3-4.6-10.4-7.1-16.6-7.2
	c-8-0.2-16.2-0.4-24.2-0.4c-2,0-8,0-10.2,4c-0.6,1-1.1,2.2-1.3,3.4c-0.1,1.2-0.2,2.4-0.2,3.5l0.2,46.5c-0.1,1.9,0.2,3.8,0.7,5.6
	c0.9,2.8,3.2,4.5,6.8,5.2c1,0.3,2.1,0.5,3.1,0.6c7.8,0,15.6,0.2,23.4,0.4C292.1,98,310.5,94.8,310.8,77z M283.1,80.2l-9.4-0.2
	l-0.6-7.2l11.5,0.1C284.6,72.9,285,80.3,283.1,80.2L283.1,80.2z M283,52.2l-9.4-0.2l-0.6-7.2l11.5,0.1
	C284.4,44.9,284.8,52.3,283,52.2L283,52.2z"/>
<ellipse transform="matrix(0.7731 -0.6343 0.6343 0.7731 36.9965 170.2624)" class="st2" cx="256.5" cy="33.4" rx="3.9" ry="1.9"/>
<ellipse transform="matrix(0.9804 -0.1968 0.1968 0.9804 -6.3261 60.2713)" class="st2" cx="300.1" cy="62" rx="2" ry="1.2"/>
<path class="st3" d="M249.7,78.4c0-5.6-1.8-11.1-5.2-15.6c2-3.5,3.1-7.5,3.1-11.6c0.1-6.8-2.8-13.3-7.9-17.8
	c-5.1-4.8-11.9-7.3-18.8-7c-8.9,0.2-18,0.5-26.8,0.9c-2.2,0.1-8.9,0.4-11.1,5c-0.7,1.2-1.1,2.5-1.2,3.8c-0.1,1.3-0.1,2.6,0,3.9
	l2.9,54.3c0,2.1,0.4,4.2,1.1,6.2c1.2,3.1,3.8,4.8,7.8,5.4c1.3,0.2,2.6,0.2,3.9,0.1c8.6-0.4,17.4-0.7,26-0.8c6.9,0,13.6-2.9,18.4-7.9
	C246.9,92.3,249.7,85.5,249.7,78.4z M216.5,79l-7.1,0.1l-0.4-2.5l8.8-0.3C217.8,76.3,218.1,79,216.5,79L216.5,79z M215.3,50.6
	l-7.1,0.1l-0.4-2.5l8.8-0.3C216.5,47.9,216.8,50.6,215.3,50.6L215.3,50.6z"/>
<path class="st4" d="M245.1,74.7c0-5.1-1.7-10-4.7-14.1c1.8-3.2,2.8-6.8,2.8-10.5c0.1-6.1-2.5-12-7.1-16c-4.6-4.3-10.7-6.6-17-6.3
	c-8,0.2-16.2,0.4-24.1,0.8c-2,0.1-8,0.3-10,4.5c-0.6,1.1-0.9,2.2-1.1,3.4c-0.1,1.2-0.1,2.4,0,3.5l2.6,46.5c0,1.9,0.4,3.8,1,5.6
	c1.1,2.7,3.4,4.4,7,4.8c1,0.2,2.1,0.4,3.2,0.4c7.7-0.3,15.6-0.6,23.4-0.7C227.5,96.5,245.6,92.5,245.1,74.7z M217.6,79.2l-9.4,0.2
	l-1-7.2l11.5-0.5C218.7,71.8,219.5,79.2,217.6,79.2L217.6,79.2z M216.1,51.3l-9.4,0.2l-1-7.2l11.5-0.5
	C217.2,43.9,218,51.2,216.1,51.3L216.1,51.3z"/>
<ellipse transform="matrix(0.7415 -0.6709 0.6709 0.7415 26.1197 135.3656)" class="st2" cx="188.7" cy="33.8" rx="3.9" ry="1.9"/>
<ellipse transform="matrix(0.9698 -0.244 0.244 0.9698 -7.6262 58.8287)" class="st2" cx="233.7" cy="60.2" rx="2" ry="1.2"/>
<path class="st3" d="M113.7,89c-0.6-5.6-3-10.9-6.9-15c1.6-3.7,2.3-7.8,1.8-11.9c-0.7-6.8-4.2-12.9-9.8-16.8
	c-5.6-4.2-12.6-6-19.5-4.9c-8.8,1.1-17.8,2.4-26.5,3.8c-2.2,0.3-8.8,1.4-10.5,6.1c-0.5,1.3-0.8,2.6-0.8,4c0.1,1.3,0.2,2.6,0.4,3.9
	l8.8,53.7c0.3,2.1,0.9,4.1,1.8,6c1.5,2.9,4.3,4.4,8.4,4.5c1.3,0,2.6-0.1,3.9-0.3c8.5-1.3,17.2-2.5,25.8-3.6
	c6.9-0.8,13.2-4.3,17.4-9.8C112.4,103.1,114.5,96,113.7,89z M80.8,93.2l-7,0.8l-0.7-2.4l8.7-1.2C81.8,90.3,82.3,93,80.8,93.2z
	 M76.5,65.2l-7,0.8l-0.7-2.4l8.7-1.2C77.5,62.3,78,64.9,76.5,65.2L76.5,65.2z"/>
<path class="st4" d="M108.7,85.8c-0.6-5-2.8-9.7-6.2-13.5c1.5-3.4,2-7.1,1.6-10.7c-0.6-6.1-3.8-11.6-8.8-15.2
	C90.3,42.6,84,41,77.8,42c-8,1-16,2.2-23.9,3.4c-2,0.3-7.9,1.2-9.5,5.5c-0.5,1.1-0.7,2.4-0.7,3.6c0,1.2,0.2,2.4,0.4,3.5l7.6,46
	c0.2,1.9,0.8,3.7,1.6,5.4c1.3,2.6,3.9,4,7.5,4.1c1.1,0.1,2.1,0.2,3.2,0.1c7.7-1.2,15.5-2.3,23.2-3.3
	C93.6,109.4,111.2,103.4,108.7,85.8z M81.8,93.3l-9.3,1.2l-1.8-7l11.3-1.7C82.1,85.8,83.8,93,81.8,93.3z M77.3,65.7L68,66.9l-1.8-7
	l11.3-1.7C77.6,58.2,79.2,65.4,77.3,65.7z"/>
<ellipse transform="matrix(0.6642 -0.7476 0.7476 0.6642 -22.1165 53.265)" class="st2" cx="48.2" cy="51.2" rx="3.8" ry="1.9"/>
<ellipse transform="matrix(0.9375 -0.3479 0.3479 0.9375 -19.2805 37.8663)" class="st2" cx="95.8" cy="72.6" rx="2" ry="1.2"/>
<path class="st5" d="M457.3,49.7c-2.3,0-4.3-1.6-4.7-3.8l-2.1-10.1c0-0.3-0.2-0.5-0.5-0.6l-9.5-4c-2.5-1-3.6-3.9-2.6-6.3
	c0.4-1,1.1-1.8,2-2.3l9-5.1c0.2-0.1,0.4-0.4,0.4-0.6l0.8-10.3c0.2-2.6,2.5-4.6,5.2-4.4c1.1,0.1,2,0.5,2.8,1.2l7.7,7
	c0.1,0.1,0.3,0.2,0.5,0.2l0,0h0.2L476.6,8c2.6-0.6,5.2,1,5.8,3.6c0.2,1,0.1,2.1-0.3,3.1l-4.2,9.4c-0.1,0.2-0.1,0.5,0,0.8l5.4,8.8
	c0.9,1.5,0.9,3.3,0.1,4.8c-0.8,1.5-2.4,2.5-4.2,2.5h-0.5l-10.3-1.1c-0.3,0-0.5,0.1-0.7,0.3L461,48C460,49.1,458.7,49.7,457.3,49.7z"
	/>
<path class="st2" d="M454.9,4c0.7,0,1.4,0.3,1.9,0.7l7.7,6.9c0.5,0.5,1.2,0.7,1.9,0.7c0.2,0,0.4,0,0.6-0.1l10.1-2.4
	c0.2-0.1,0.4-0.1,0.7-0.1c1.6,0,2.8,1.3,2.8,2.8c0,0.4-0.1,0.8-0.3,1.2l-4.2,9.4c-0.4,0.8-0.3,1.8,0.2,2.6l5.4,8.8
	c0.8,1.3,0.4,3.1-1,3.9c-0.4,0.3-0.9,0.4-1.4,0.4h-0.3l-10.3-1.1h-0.3c-0.8,0-1.6,0.4-2.1,1l-6.7,7.8c-0.5,0.6-1.3,1-2.1,1
	c-1.3,0-2.5-0.9-2.8-2.2l-2.1-10.2c-0.2-0.9-0.8-1.6-1.7-2l-9.5-4c-1.4-0.6-2.1-2.3-1.5-3.7c0.2-0.5,0.6-1,1.2-1.3l9-5.1
	c0.8-0.5,1.3-1.3,1.4-2.2l0.8-10.3C452.2,5.2,453.4,4,454.9,4 M454.9,0c-3.6,0-6.5,2.7-6.8,6.3l-0.8,9.7l-8.4,4.9
	c-3.3,1.9-4.4,6-2.5,9.3c0.7,1.3,1.9,2.3,3.3,2.9l9,3.8l2,9.5c0.8,3.7,4.4,6,8.1,5.2c1.5-0.3,2.8-1.1,3.8-2.2l6.3-7.4l9.7,1
	c0.2,0,0.5,0,0.7,0c3.8,0,6.8-3.1,6.8-6.8c0-1.2-0.3-2.5-1-3.5l-5.1-8.3l4-8.9c1.5-3.4,0-7.5-3.4-9c-0.9-0.4-1.8-0.6-2.8-0.6
	c-0.5,0-1.1,0.1-1.6,0.2l-9.5,2.2l-7.2-6.5C458.3,0.6,456.6,0,454.9,0z"/>
<path class="st6" d="M477.1,15.1l-3.4,7.7c-0.3,0.7-0.3,1.5,0.1,2.1l4.2,7.1c0.6,1.1,0.3,2.5-0.8,3.2c-0.4,0.2-0.9,0.3-1.3,0.3
	l-8.2-0.8c-0.7-0.1-1.5,0.2-1.9,0.8l-5.4,6.5c-0.8,0.9-2.1,1.1-3.1,0.3c-0.4-0.3-0.7-0.8-0.8-1.3l-1.6-8.2c-0.1-0.7-0.6-1.3-1.3-1.6
	l-7.6-3.1c-1.2-0.5-1.7-1.9-1.2-3c0.2-0.4,0.5-0.8,0.9-1.1l7.1-4.3c0.6-0.4,1.1-1.1,1.1-1.8l0.7-8.4c0.1-1.2,1.1-2.2,2.4-2.1
	c0.5,0,1,0.2,1.4,0.6l6,5.6c0.5,0.5,1.3,0.7,2,0.5l8-2c1.2-0.3,2.4,0.4,2.7,1.6C477.3,14.1,477.3,14.6,477.1,15.1z"/>
</svg>
